<svg width="600" height="400" viewBox="0 0 600 400" xmlns="http://www.w3.org/2000/svg">
  <!-- Background -->
  <rect width="600" height="400" fill="white"/>
  
  <!-- Decorative elements -->
  <!-- Small plus signs and star-like shapes -->
  <g fill="#d1d5db">
    <text x="50" y="80" font-family="Arial" font-size="12">+</text>
    <text x="70" y="60" font-family="Arial" font-size="12">+</text>
    <text x="520" y="70" font-family="Arial" font-size="12">+</text>
  </g>
  
  <!-- Star-like shapes -->
  <g fill="#374151">
    <!-- Left side stars -->
    <path d="M80 120 L82 118 L84 120 L82 122 Z"/>
    <path d="M85 125 L87 123 L89 125 L87 127 Z"/>
    <path d="M75 140 L77 138 L79 140 L77 142 Z"/>
    <path d="M90 150 L92 148 L94 150 L92 152 Z"/>
    
    <!-- Right side stars -->
    <path d="M480 130 L482 128 L484 130 L482 132 Z"/>
    <path d="M485 145 L487 143 L489 145 L487 147 Z"/>
  </g>
  
  <!-- Light gray clouds -->
  <ellipse cx="120" cy="100" rx="25" ry="15" fill="#f3f4f6"/>
  <ellipse cx="450" cy="80" rx="20" ry="12" fill="#f3f4f6"/>
  <ellipse cx="380" cy="120" rx="30" ry="18" fill="#f3f4f6"/>
  <ellipse cx="200" cy="60" rx="15" ry="10" fill="#f3f4f6"/>
  
  <!-- Laptop -->
  <!-- Laptop base/keyboard -->
  <rect x="200" y="280" width="200" height="15" fill="#9ca3af" rx="2"/>
  <rect x="210" y="285" width="180" height="5" fill="#6b7280"/>
  
  <!-- Laptop screen -->
  <rect x="190" y="200" width="220" height="120" fill="#6b7280" rx="3"/>
  <rect x="200" y="210" width="200" height="100" fill="#374151" rx="2"/>
  
  <!-- MVP Text on screen -->
  <text x="220" y="250" font-family="Arial, sans-serif" font-size="48" font-weight="bold" fill="black">M</text>
  <text x="340" y="250" font-family="Arial, sans-serif" font-size="48" font-weight="bold" fill="black">P</text>
  
  <!-- Rocket -->
  <!-- Rocket body -->
  <rect x="295" y="150" width="10" height="60" fill="white"/>
  
  <!-- Rocket nose cone -->
  <polygon points="300,150 295,140 305,140" fill="#f97316"/>
  
  <!-- Rocket fins -->
  <polygon points="295,200 285,210 295,210" fill="#f97316"/>
  <polygon points="305,200 315,210 305,210" fill="#f97316"/>
  
  <!-- Rocket window -->
  <circle cx="300" cy="170" r="3" fill="#f97316"/>
  <circle cx="300" cy="170" r="1.5" fill="white"/>
  
  <!-- Launch smoke/exhaust -->
  <ellipse cx="300" cy="210" rx="40" ry="25" fill="white" opacity="0.8"/>
  <ellipse cx="300" cy="220" rx="30" ry="20" fill="white" opacity="0.6"/>
  <ellipse cx="300" cy="230" rx="20" ry="15" fill="white" opacity="0.4"/>
  
  <!-- Smoke covering the V in MVP -->
  <ellipse cx="280" cy="240" rx="15" ry="10" fill="white" opacity="0.9"/>
  <ellipse cx="290" cy="245" rx="12" ry="8" fill="white" opacity="0.7"/>
  
  <!-- Subtle shadows on laptop -->
  <rect x="190" y="200" width="220" height="120" fill="none" stroke="#d1d5db" stroke-width="1" rx="3"/>
</svg>
